<svg version="1.2" xmlns="http://www.w3.org/2000/svg" viewBox="0 0 1000 332" width="1000" height="332">
	<title>octave-logo--white</title>
	<defs>
		<linearGradient id="g1" x2="1" gradientUnits="userSpaceOnUse" gradientTransform="matrix(331.08,0,0,331.094,1.654,166.256)">
			<stop offset="0" stop-color="#02fcf1"/>
			<stop offset="1" stop-color="#a02bfe"/>
		</linearGradient>
		<linearGradient id="g2" x2="1" gradientUnits="userSpaceOnUse" gradientTransform="matrix(280.145,0,0,280.158,26.377,166.256)">
			<stop offset="0" stop-color="#15e4f3"/>
			<stop offset="1" stop-color="#a22aff"/>
		</linearGradient>
		<linearGradient id="g3" x2="1" gradientUnits="userSpaceOnUse" gradientTransform="matrix(272.701,0,0,272.713,29.743,166.256)">
			<stop offset="0" stop-color="#f8d85c"/>
			<stop offset="1" stop-color="#ff1c8b"/>
		</linearGradient>
		<linearGradient id="g4" x2="1" gradientUnits="userSpaceOnUse" gradientTransform="matrix(146.439,0,0,146.446,93.23,166.256)">
			<stop offset="0" stop-color="#f8d15d"/>
			<stop offset="1" stop-color="#ff1c8b"/>
		</linearGradient>
	</defs>
	<style>
		.s0 { fill: url(#g1) } 
		.s1 { fill: url(#g2) } 
		.s2 { fill: #1d154a } 
		.s3 { fill: url(#g3) } 
		.s4 { fill: url(#g4) } 
		.s5 { fill: #ffffff } 
	</style>
	<path fill-rule="evenodd" class="s0" d="m166.4 331.8c-91.5 0-165.5-74-165.5-165.5 0-91.6 74-165.6 165.5-165.6 91.6 0 165.6 74 165.6 165.6 0 91.5-74 165.5-165.6 165.5z"/>
	<path fill-rule="evenodd" class="s1" d="m166.4 306.3c-77.4 0-140-62.6-140-140 0-77.5 62.6-140.1 140-140.1 77.5 0 140.1 62.6 140.1 140.1 0 77.4-62.6 140-140.1 140z"/>
	<path fill-rule="evenodd" class="s2" d="m166.4 284c-65.1 0-117.7-52.6-117.7-117.7 0-65.2 52.6-117.8 117.7-117.8 65.2 0 117.8 52.6 117.8 117.8 0 65.1-52.6 117.7-117.8 117.7z"/>
	<path fill-rule="evenodd" class="s3" d="m166.4 261.8c-52.8 0-95.5-42.7-95.5-95.5 0-52.9 42.7-95.6 95.5-95.6 52.9 0 95.6 42.7 95.6 95.6 0 52.8-42.7 95.5-95.6 95.5z"/>
	<path fill-rule="evenodd" class="s4" d="m166.4 239.5c-40.4 0-73.2-32.8-73.2-73.2 0-40.5 32.8-73.3 73.2-73.3 40.5 0 73.3 32.8 73.3 73.3 0 40.4-32.8 73.2-73.3 73.2z"/>
	<path fill-rule="evenodd" class="s2" d="m166.4 214c-26.4 0-47.7-21.3-47.7-47.7 0-26.5 21.3-47.8 47.7-47.8 26.5 0 47.8 21.3 47.8 47.8 0 26.4-21.3 47.7-47.8 47.7z"/>
	<path class="s5" d="m164.4 145.5c0.8-1.6 3.3-1.6 4.1 0 1.7 3.6 4.4 8.4 7.3 11.4 3 2.9 7.8 5.6 11.4 7.3 1.7 0.8 1.7 3.3 0 4.1-3.6 1.7-8.4 4.4-11.4 7.3-2.9 3-5.6 7.8-7.3 11.4-0.8 1.7-3.3 1.7-4.1 0-1.7-3.6-4.4-8.4-7.3-11.4-3-2.9-7.8-5.6-11.4-7.3-1.7-0.8-1.7-3.3 0-4.1 3.6-1.7 8.4-4.4 11.4-7.3 2.9-3 5.6-7.8 7.3-11.4z"/>
	<path class="s5" d="m491.3 231.1c37.2 0 60.4-24.9 60.4-64.8v-0.2c0-39.8-23.2-64.7-60.4-64.7-37.1 0-60.5 24.9-60.5 64.7v0.2c0 39.9 23.2 64.8 60.5 64.8zm0-22.2c-20.6 0-33.7-16.4-33.7-42.6v-0.2c0-26.2 13.2-42.5 33.7-42.5 20.6 0 33.7 16.4 33.7 42.5v0.2c0 26-12.9 42.6-33.7 42.6z"/>
	<path class="s5" d="m609.1 230.8c24.8 0 40.9-15.4 42.1-35.7v-0.6h-23.6l-0.1 0.8c-1.8 9.4-8.1 15.6-18.3 15.6-12.5 0-20.3-10.3-20.3-28.5v-0.1c0-17.8 7.8-28.5 20.2-28.5 10.6 0 16.7 6.8 18.3 15.6l0.2 0.8h23.5v-0.6c-1-20.2-17-35.7-42.3-35.7-27.9 0-45.7 18.5-45.7 48.3v0.1c0 30 17.6 48.5 46 48.5z"/>
	<path class="s5" d="m700.4 230.8c5.3 0 9.4-0.5 12.3-0.9v-18.6c-1.6 0.2-3.2 0.4-5.5 0.4-7.6 0-11.5-2.9-11.5-11.6v-45.2h17v-19.1h-17v-22.7h-25.7v22.7h-12.9v19.1h12.9v48c0 19.9 9.8 27.9 30.4 27.9z"/>
	<path class="s5" d="m753.5 230.4c12.3 0 22.2-5.8 27.5-15.4h0.5v13.9h25.3v-63.8c0-18.8-15.5-31.2-39.6-31.2-24.5 0-39.3 12.3-40.7 29.5l-0.1 1.1h23.2l0.2-0.8c1.2-6 6.9-10.4 16.4-10.4 9.9 0 15.3 5.1 15.3 13.3v5.8l-23 1.4c-23.1 1.4-36.3 11.3-36.3 28.3v0.2c0 16.4 12.6 28.1 31.3 28.1zm-6.2-29.4v-0.2c0-6.6 5.2-10.8 15-11.4l19.2-1.2v6.7c0 9.7-8.4 17-19.7 17-8.8 0-14.5-4.1-14.5-10.9z"/>
	<path class="s5" d="m847.3 228.9h28.6l32-93.1h-26.5l-19.2 70.7h-0.5l-19.5-70.7h-27.1z"/>
	<path class="s5" d="m955.8 230.8c26.6 0 39.4-15.7 42.3-29.4l0.3-1h-23.3l-0.2 0.6c-1.8 5.2-8.1 10.9-18.6 10.9-12.9 0-21-8.7-21.2-23.5h64.1v-7.9c0-28.1-17.2-46.6-44.4-46.6-27.3 0-44.8 18.9-44.8 48.6 0 29.8 17.3 48.3 45.8 48.3zm-0.6-78c10.5 0 18.1 6.7 19.6 19.6h-39.5c1.7-12.6 9.5-19.6 19.9-19.6z"/>
</svg>